<?xml version="1.0" encoding="utf-8"?>
<!-- Generator: Adobe Illustrator 21.0.0, SVG Export Plug-In . SVG Version: 6.00 Build 0)  -->
<svg version="1.1" id="Layer_1" xmlns="http://www.w3.org/2000/svg" xmlns:xlink="http://www.w3.org/1999/xlink" x="0px" y="0px"
	 viewBox="0 0 588.7 91.3" style="enable-background:new 0 0 588.7 91.3;" xml:space="preserve">
<style type="text/css">
	.st0{clip-path:url(#SVGID_2_);fill:#00356B;}
	.st1{clip-path:url(#SVGID_4_);fill:#00356B;}
	.st2{clip-path:url(#SVGID_6_);fill:#00356B;}
	.st3{clip-path:url(#SVGID_8_);fill:#00356B;}
	.st4{clip-path:url(#SVGID_10_);fill:#00356B;}
	.st5{clip-path:url(#SVGID_12_);fill:#00356B;}
	.st6{clip-path:url(#SVGID_14_);fill:#00356B;}
</style>
<g>
	<g>
		<defs>
			<rect id="SVGID_1_" x="3.7" y="2.1" width="581.8" height="86.9"/>
		</defs>
		<clipPath id="SVGID_2_">
			<use xlink:href="#SVGID_1_"  style="overflow:visible;"/>
		</clipPath>
		<path class="st0" d="M182.9,38.4c-6.2,0-10.6,5-12.1,12.8l21.9-0.2C192.8,44.3,188.7,38.4,182.9,38.4 M181.8,88.9
			c-13,0-23.1-10.3-23.1-24.7c0-17.6,10.8-29.7,26.1-29.7c12.3,0,19.1,7,19.1,18v2.2l-33.5-0.2c-0.2,1.4-0.4,3.6-0.4,6.3
			c0,12.7,7.9,21,18.5,21c6.3,0,9.6-2.2,14.5-6.5l1.9,2.9C197.8,84.7,192,88.9,181.8,88.9 M124.4,87.9v-2.9c5.6-0.4,7.2-1.6,8.2-3.7
			V17c0-4.2-0.6-6-9.2-6.7V7.8l22.7-5.7l0.7,2.1l-3.6,4.5v72.7c1.2,2.5,3.6,3.3,8.7,3.7v2.9C152,87.9,124.4,87.9,124.4,87.9z
			 M86.6,68.8c-0.5,2-0.9,3.7-0.9,6.5c0,3.7,2.1,7.5,6.2,7.5c3.7,0,5.8-1.2,9.2-3.9l0.1-16.8C98,63.6,90,67.1,86.6,68.8 M111.4,89
			c-6.7,0-9.9-4.6-10.2-7.8C97,85.7,91.5,89,86.3,89c-6.7,0-12.4-4.1-12.4-11.2c0-3.5,0.9-7.1,2.6-9.9l24.7-8.9v-9.2
			c0-5.6-2.6-10.9-8.2-10.9c-3.4,0-6.6,4.1-6.8,10.4L75,51.2v-1.2c3.7-11.2,16-15.5,22-15.5c11.3,0,15.4,6,15.3,15.2l-0.4,26.1
			c-0.1,5.1,2.6,6.3,5.1,6.3c2,0,4-1.2,6.3-3.6V82C120.6,85.2,115.7,89,111.4,89 M70.7,20.4L50.2,54.9v23.2c2.4,5.6,8.3,6.3,14,6.6
			v3.2H24.1v-3.2c5.7-0.2,12.7-1.1,14.5-4.8v-24L17.7,20.6c-3.6-6-7.1-8-14-8.4V8.9h34.9v3.2c-6.6,0.4-8.7,1.6-10.6,3.1l19.4,33.5
			l19-33.4c-2-1.5-4.6-2.9-11.2-3.2V8.9h29.8v3.2C78.4,12.4,74.1,14.6,70.7,20.4"/>
	</g>
	<g>
		<defs>
			<rect id="SVGID_3_" x="3.7" y="2.1" width="581.8" height="86.9"/>
		</defs>
		<clipPath id="SVGID_4_">
			<use xlink:href="#SVGID_3_"  style="overflow:visible;"/>
		</clipPath>
		<path class="st1" d="M265.3,87.9v-2.3c3.7-0.1,7-1.2,7.9-2.8V63.6h-27.7v19.2c0.6,1.6,4.1,2.7,7.8,2.8v2.3h-24.7v-2.3
			c3.6-0.1,7.1-1.2,7.8-2.8V41.2c-0.6-1.6-4.2-2.7-7.8-2.9v-2.1h24.7v2.1c-3.6,0.2-7.1,1.3-7.8,2.9v18.1h27.7V41.2
			c-0.9-1.6-4.1-2.7-7.9-2.9v-2.1h24.9v2.1c-3.7,0.2-7,1.3-7.9,2.9v41.6c0.8,1.6,4.2,2.7,7.9,2.8v2.3L265.3,87.9L265.3,87.9z"/>
	</g>
	<g>
		<defs>
			<rect id="SVGID_5_" x="3.7" y="2.1" width="581.8" height="86.9"/>
		</defs>
		<clipPath id="SVGID_6_">
			<use xlink:href="#SVGID_5_"  style="overflow:visible;"/>
		</clipPath>
		<path class="st2" d="M316.7,87.9l-18.4,0.2v-2.2c3.7-0.2,9.3-1.3,10.3-3.9V41.2c-0.6-1.6-4.2-2.6-7.9-2.8v-2.2h33.7
			c2.2,0,3.7-0.2,4.8-0.5h1.9v13.6h-2.1c-0.3-7.1-3.2-9.1-9.4-9.1h-11.8v19.3h11.1c5.5,0,7.8-0.1,8.5-6.1h2v16.8h-2.1
			c-0.6-6.5-2.4-6.6-8.4-6.6h-11.1v17.6c0.2,1.1,0.6,2.2,2.1,2.8l12.9-0.2c5.4-0.1,9.1-2.4,9.3-9.4h2v13.5H316.7z"/>
	</g>
	<g>
		<defs>
			<rect id="SVGID_7_" x="3.7" y="2.1" width="581.8" height="86.9"/>
		</defs>
		<clipPath id="SVGID_8_">
			<use xlink:href="#SVGID_7_"  style="overflow:visible;"/>
		</clipPath>
		<path class="st3" d="M380.4,46.8l-1.1-3.9h-0.4l-1.2,3.9l-5.9,16.7h13.8L380.4,46.8z M384.7,87.9v-2.3c3.7-0.2,6.8-1.1,7.7-2.8
			l-5.3-15.2h-16.6l-5.2,14.3c0.8,1.9,4,3.5,7.7,3.7v2.3h-21.2v-2.3c3.7-0.2,6.4-0.9,8-2.9c2.2-5.5,4.8-11.8,7.2-18.4
			c3.4-9.2,6.8-18.1,8.7-23.6c0.9-2.4,0.9-3.4,1.1-5h9.9c0.2,2.6,0.4,4,1.1,6.2c2.8,8.6,5,15.3,7.3,22.3c1.9,5.8,3.9,11.1,6.6,18
			c0.9,2.3,4.2,3.3,7.9,3.5v2.3C409.5,87.9,384.7,87.9,384.7,87.9z"/>
	</g>
	<g>
		<defs>
			<rect id="SVGID_9_" x="3.7" y="2.1" width="581.8" height="86.9"/>
		</defs>
		<clipPath id="SVGID_10_">
			<use xlink:href="#SVGID_9_"  style="overflow:visible;"/>
		</clipPath>
		<path class="st4" d="M415.7,87.9v-2.3c3.3-0.2,8.3-1.1,9.4-3.7V41.2c-0.6-1.6-4.2-2.6-7.8-2.8v-2.2h25.5v2.2
			c-3.6,0.2-7.9,1.3-8.5,2.9V84l14.7-0.4c5.5-0.1,9.2-5.4,9.3-12.2h2.2v16.6C460.4,87.9,415.7,87.9,415.7,87.9z"/>
	</g>
	<g>
		<defs>
			<rect id="SVGID_11_" x="3.7" y="2.1" width="581.8" height="86.9"/>
		</defs>
		<clipPath id="SVGID_12_">
			<use xlink:href="#SVGID_11_"  style="overflow:visible;"/>
		</clipPath>
		<path class="st5" d="M512.4,51c-0.2-6.9-3.9-10.5-9.8-10.7l-8.7-0.1v40.9c1.8,3.8,6.3,4.3,10,4.5v2.3h-29.4v-2.3
			c3.7-0.2,9.1-1,10.2-3.3V40.2l-8.7,0.1c-5.9,0.1-9.6,3.7-9.7,10.7h-2.2V35.5h2c1.1,0.3,2.1,0.6,4.8,0.6h36.8
			c1.9,0,3.7-0.3,4.8-0.6h2V51H512.4z"/>
	</g>
	<g>
		<defs>
			<rect id="SVGID_13_" x="3.7" y="2.1" width="581.8" height="86.9"/>
		</defs>
		<clipPath id="SVGID_14_">
			<use xlink:href="#SVGID_13_"  style="overflow:visible;"/>
		</clipPath>
		<path class="st6" d="M560.6,87.9v-2.3c3.7-0.1,7-1.2,7.9-2.8V63.6h-27.7v19.2c0.6,1.6,4.1,2.7,7.8,2.8v2.3h-24.7v-2.3
			c3.6-0.1,7.1-1.2,7.8-2.8V41.2c-0.6-1.6-4.2-2.7-7.8-2.9v-2.1h24.7v2.1c-3.6,0.2-7.1,1.3-7.8,2.9v18.1h27.7V41.2
			c-0.9-1.6-4.2-2.7-7.9-2.9v-2.1h24.9v2.1c-3.7,0.2-7,1.3-7.9,2.9v41.6c0.9,1.6,4.2,2.7,7.9,2.8v2.3L560.6,87.9L560.6,87.9z"/>
	</g>
</g>
</svg>
